<svg xmlns="http://www.w3.org/2000/svg" width="192.047" height="66.647"><g data-name="Gruppe 24"><g data-name="Gruppe 25"><path fill="#adbf00" d="M162.074 3.39a29.883 29.883 0 0 0-12.477 2.718L143.699 0l-33.638 8.389-9.555 33.323 24.083 24.935 24.824-6.19A29.944 29.944 0 1 0 162.074 3.39" data-name="Pfad 3"/><path fill="#003554" d="M153.173 49.944V16.703h24.643v5.624h-17.931v7.369h16.689v5.6h-16.689v9.047h18.57v5.6Z" data-name="Pfad 4"/><path fill="#003554" d="M0 16.691h13.288a38.472 38.472 0 0 1 5.883.328 8.657 8.657 0 0 1 3.47 1.372 8.546 8.546 0 0 1 2.551 2.777 7.536 7.536 0 0 1 1.02 3.888 7.88 7.88 0 0 1-4.67 7.212 8.753 8.753 0 0 1 4.671 3.015 8.005 8.005 0 0 1 1.631 5.011 9.883 9.883 0 0 1-1.054 4.41 8.9 8.9 0 0 1-2.878 3.423 9.51 9.51 0 0 1-4.5 1.575q-1.679.182-8.095.227H0Zm6.712 5.532v7.687h4.4q3.923 0 4.875-.113a4.438 4.438 0 0 0 2.71-1.191 3.517 3.517 0 0 0 .986-2.6 3.646 3.646 0 0 0-.851-2.505 3.851 3.851 0 0 0-2.532-1.164q-1-.113-5.736-.114Zm0 13.22v8.889h6.212a30.394 30.394 0 0 0 4.6-.2 4.154 4.154 0 0 0 2.437-1.327 4.08 4.08 0 0 0 .942-2.823 4.335 4.335 0 0 0-.725-2.539 4.106 4.106 0 0 0-2.1-1.519 22.81 22.81 0 0 0-5.953-.476Z" data-name="Pfad 5"/><path fill="#003554" d="M33.164 16.691h13.29a38.475 38.475 0 0 1 5.884.328 8.654 8.654 0 0 1 3.469 1.372 8.539 8.539 0 0 1 2.547 2.777 7.53 7.53 0 0 1 1.02 3.888 7.88 7.88 0 0 1-4.669 7.212 8.751 8.751 0 0 1 4.671 3.015 8.006 8.006 0 0 1 1.632 5.011 9.883 9.883 0 0 1-1.054 4.41 8.894 8.894 0 0 1-2.879 3.423 9.505 9.505 0 0 1-4.5 1.575q-1.679.182-8.095.227H33.164Zm6.711 5.532v7.687h4.4q3.922 0 4.875-.113a4.438 4.438 0 0 0 2.71-1.191 3.514 3.514 0 0 0 .986-2.6 3.648 3.648 0 0 0-.85-2.505 3.852 3.852 0 0 0-2.529-1.168q-1-.113-5.736-.114Zm0 13.22v8.889h6.212a30.406 30.406 0 0 0 4.6-.2 4.158 4.158 0 0 0 2.437-1.327 4.083 4.083 0 0 0 .942-2.823 4.335 4.335 0 0 0-.725-2.539 4.1 4.1 0 0 0-2.1-1.519 22.816 22.816 0 0 0-5.953-.476Z" data-name="Pfad 6"/><path fill="#003554" d="m64.976 39.116 6.53-.635a7.966 7.966 0 0 0 2.392 4.83 7.228 7.228 0 0 0 4.864 1.542 7.473 7.473 0 0 0 4.885-1.371 4.082 4.082 0 0 0 1.645-3.207 3.03 3.03 0 0 0-.692-2.007 5.524 5.524 0 0 0-2.415-1.439q-1.178-.408-5.374-1.452-5.4-1.336-7.573-3.287a8.65 8.65 0 0 1-3.061-6.689 8.544 8.544 0 0 1 1.44-4.751 9.013 9.013 0 0 1 4.15-3.366 16.622 16.622 0 0 1 6.542-1.157q6.257 0 9.42 2.743a9.683 9.683 0 0 1 3.322 7.325l-6.712.295a5.7 5.7 0 0 0-1.847-3.685 6.77 6.77 0 0 0-4.252-1.13 7.67 7.67 0 0 0-4.58 1.2 2.421 2.421 0 0 0-1.066 2.064 2.55 2.55 0 0 0 1 2.017q1.269 1.066 6.167 2.222a32.518 32.518 0 0 1 7.245 2.392 9.329 9.329 0 0 1 3.673 3.379 10.459 10.459 0 0 1-.261 10.645 9.51 9.51 0 0 1-4.489 3.708 18.836 18.836 0 0 1-7.234 1.213q-6.3 0-9.681-2.913t-4.037-8.492" data-name="Pfad 7"/><path fill="#003554" d="M114.348 49.944V16.703h10.045l6.031 22.675 5.963-22.675h10.068v33.241h-6.231V23.777l-6.6 26.167h-6.462l-6.578-26.167v26.167Z" data-name="Pfad 8"/></g></g></svg>